<?xml version="1.0" standalone="no"?>
<!DOCTYPE svg PUBLIC "-//W3C//DTD SVG 20010904//EN"
 "http://www.w3.org/TR/2001/REC-SVG-20010904/DTD/svg10.dtd">
<svg version="1.0" xmlns="http://www.w3.org/2000/svg"
 width="261.000000pt" height="261.000000pt" viewBox="0 0 261.000000 261.000000"
 preserveAspectRatio="xMidYMid meet">
<metadata>
Created by potrace 1.14, written by Peter Selinger 2001-2017
</metadata>
<g transform="translate(0.000000,261.000000) scale(0.100000,-0.100000)"
fill="#000000" stroke="none">
<path d="M1210 1871 c0 -6 -13 -9 -30 -7 -16 2 -30 1 -30 -3 0 -3 -17 -7 -38
-8 -20 0 -48 -4 -62 -8 -14 -3 -32 -7 -40 -9 -8 -1 -35 -8 -60 -16 -25 -7 -47
-14 -50 -15 -20 -4 -60 -19 -85 -30 -17 -8 -51 -23 -78 -34 -26 -11 -47 -25
-47 -31 0 -6 -4 -9 -8 -6 -5 3 -32 -10 -60 -28 -28 -19 -53 -31 -56 -28 -3 3
-6 -2 -6 -11 0 -10 -4 -16 -9 -15 -5 2 -25 -10 -46 -27 -44 -35 -189 -175
-182 -175 3 0 -8 -14 -23 -30 -33 -36 -120 -165 -120 -179 0 -5 -3 -11 -7 -13
-7 -3 -45 -74 -47 -88 -1 -3 -5 -11 -9 -17 -5 -7 -5 -18 -1 -25 4 -7 3 -8 -4
-4 -8 5 -12 0 -12 -13 0 -12 -5 -21 -11 -21 -5 0 -8 -3 -5 -8 2 -4 -4 -33 -14
-63 -11 -31 -22 -71 -25 -90 -4 -19 -8 -41 -10 -49 -2 -8 -4 -28 -4 -43 -1
-16 -4 -26 -8 -24 -5 3 -8 -32 -8 -76 l0 -82 1290 0 1290 0 0 25 c0 14 -4 28
-10 32 -6 5 -6 8 1 8 9 0 11 32 4 50 -3 6 -7 38 -8 73 -1 16 -6 26 -10 23 -5
-3 -6 9 -4 26 3 23 1 29 -8 23 -9 -6 -9 -3 -1 13 7 14 8 23 1 27 -5 3 -10 17
-10 31 0 14 -4 23 -9 20 -4 -3 -7 5 -7 17 1 12 0 27 -3 32 -3 6 -6 12 -7 15 0
3 -8 21 -17 41 -9 20 -17 42 -19 50 -2 8 -5 16 -8 19 -3 3 -21 36 -40 73 -19
38 -43 76 -52 87 -9 10 -14 20 -11 24 3 3 -2 8 -11 12 -9 3 -16 12 -16 20 0 8
-4 14 -10 14 -5 0 -10 4 -10 10 0 15 -172 200 -186 200 -4 0 -14 8 -23 18 -22
25 -134 102 -148 102 -6 0 -13 4 -15 8 -5 12 -77 52 -94 52 -8 0 -14 5 -14 10
0 6 -9 10 -20 10 -11 0 -20 5 -20 12 0 6 -3 9 -6 5 -4 -3 -23 1 -43 10 -20 8
-44 15 -53 15 -10 0 -18 3 -18 9 0 5 -13 9 -30 9 -16 0 -30 5 -30 10 0 6 -3 9
-7 9 -26 -4 -83 2 -79 9 2 4 -17 8 -44 7 -27 0 -47 2 -45 5 2 3 -49 7 -113 8
-63 2 -119 5 -124 8 -4 3 -8 1 -8 -5z"/>
</g>
</svg>
